<?xml version="1.0" encoding="utf-8"?>
<!-- Generator: Adobe Illustrator 15.0.0, SVG Export Plug-In . SVG Version: 6.00 Build 0)  -->
<!DOCTYPE svg PUBLIC "-//W3C//DTD SVG 1.1//EN" "http://www.w3.org/Graphics/SVG/1.1/DTD/svg11.dtd">
<svg version="1.1" id="Layer_1" xmlns="http://www.w3.org/2000/svg" xmlns:xlink="http://www.w3.org/1999/xlink" x="0px" y="0px"
	 width="250px" height="550px" viewBox="0 0 250 550" enable-background="new 0 0 250 550" xml:space="preserve">
<rect x="84.333" y="320" fill="#706F6F" width="5.667" height="5.542"/>
<rect x="84.208" y="329.541" fill="#706F6F" width="5.792" height="5.459"/>
<rect x="69.542" y="334.126" fill="#706F6F" width="6" height="5.874"/>
<rect x="79.25" y="334.334" fill="#706F6F" width="5.75" height="5.666"/>
<rect x="74.375" y="329.417" fill="#706F6F" width="6.292" height="6.209"/>
<g>
	<g>
		<rect x="210" y="35" fill="#33AB66" width="5" height="5.417"/>
		<rect x="210" y="35" fill="#66C08C" width="5" height="5.417"/>
		<rect x="210" y="35" fill="#66C08C" width="5.751" height="5"/>
	</g>
	<rect x="229.584" y="34.583" fill="#F1F1F1" width="5.832" height="5.833"/>
	<rect x="234.042" y="40" fill="#009640" width="5.958" height="5"/>
	<rect x="235" y="39.292" fill="#009640" width="5" height="5.708"/>
	<rect x="174.708" y="14.708" fill="#EDEDED" width="5.584" height="5.584"/>
	<rect x="78.5" y="14.25" fill="#EDEDED" width="6.5" height="6.5"/>
	<rect x="69.396" y="14.396" fill="#EDEDED" width="6.208" height="6.208"/>
	<g>
		<rect x="65" y="10" fill="#66C08C" width="6.458" height="5"/>
		<rect x="70" y="5" fill="#66C08C" width="5.958" height="5"/>
		<rect x="65" y="10" fill="#66C08C" width="5" height="5.958"/>
		<rect x="70" y="5" fill="#66C08C" width="5" height="5.833"/>
	</g>
	<rect x="19.583" y="14" fill="#EDEDED" width="6.042" height="6.625"/>
	<g>
		<rect x="15" y="10" fill="#66C08C" width="6.458" height="5"/>
		<rect x="20" y="5" fill="#66C08C" width="5.958" height="5"/>
		<rect x="15" y="10" fill="#66C08C" width="5" height="5.958"/>
		<rect x="20" y="5" fill="#66C08C" width="5" height="5.833"/>
	</g>
	<rect x="15" y="39.125" fill="#009640" width="5" height="5.875"/>
	<rect x="30" y="39.125" fill="#009640" width="5" height="5.875"/>
	<rect x="29.167" y="14.583" fill="#EDEDED" width="5.833" height="5.833"/>
	<polygon fill="#33AB66" points="30,5 25,5 25,10 20,10 20,15 25,15 25,20 20,20 20,15 15,15 15,20 15,25 15,30 15,35 15,40 20,40 
		25,40 30,40 35,40 35,35 35,30 35,25 35,20 30,20 30,15 35,15 35,10 35,5 	"/>
	<rect x="70" y="39.313" fill="#009640" width="5" height="5.688"/>
	<rect x="80" y="35" fill="#33AB66" width="5" height="5"/>
	<rect x="78.875" y="33.875" fill="#009640" width="6.125" height="6.125"/>
	<polygon fill="#33AB66" points="80,5 75,5 75,10 70,10 70,15 75,15 75,20 70,20 70,15 65,15 65,20 65,25 65,30 65,35 65,40 70,40 
		75,40 80,40 80,35 85,35 85,30 85,25 85,20 80,20 80,15 85,15 85,10 85,5 	"/>
	<rect x="130" y="39.5" fill="#009640" width="5" height="5.5"/>
	<rect x="115" y="39.5" fill="#009640" width="5" height="5.5"/>
	<rect x="124.438" y="14.438" fill="#EDEDED" width="6.125" height="6.125"/>
	<g>
		<rect x="124.75" y="5" fill="#66C08C" width="5.25" height="5"/>
		<rect x="125" y="5" fill="#66C08C" width="5" height="5.938"/>
		<rect x="128.938" y="10" fill="#66C08C" width="6.063" height="5"/>
		<rect x="130" y="10" fill="#66C08C" width="5" height="5.875"/>
	</g>
	<rect x="174.708" y="5" fill="#66C08C" width="5.25" height="5"/>
	<rect x="178.896" y="10" fill="#66C08C" width="6.063" height="5"/>
	<g>
		<rect x="175" y="5" fill="#66C08C" width="5" height="5.938"/>
		<rect x="180" y="10" fill="#66C08C" width="5" height="5.875"/>
	</g>
	<rect x="115" y="14.438" fill="#EDEDED" width="6.125" height="6.125"/>
	<polygon fill="#33AB66" points="130,15 130,20 125,20 125,15 130,15 130,10 125,10 125,5 120,5 115,5 115,10 115,15 120,15 120,20 
		115,20 115,25 115,30 115,35 115,40 120,40 125,40 130,40 135,40 135,35 135,30 135,25 135,20 135,15 	"/>
	<rect x="175" y="39.427" fill="#009640" width="5" height="5.573"/>
	<rect x="165" y="35" fill="#33AB66" width="5" height="5"/>
	<rect x="165" y="33.667" fill="#009640" width="6.417" height="6.333"/>
	<rect x="165" y="14.583" fill="#EDEDED" width="6.332" height="6.333"/>
	<polygon fill="#33AB66" points="180,15 180,20 175,20 175,15 180,15 180,10 175,10 175,5 170,5 165,5 165,10 165,15 170,15 
		170,19.917 165,19.917 165,24.917 165,29.917 165,34.917 170,34.917 170,40 175,40 180,40 185,40 185,34.917 185,29.917 185,25 
		185,24.917 185,20 185,15 	"/>
	<rect x="219.625" y="29.625" fill="#F1F1F1" width="5.75" height="5.75"/>
	<rect x="215" y="40" fill="#33AB66" width="5" height="5"/>
	<rect x="215" y="40" fill="#009640" width="5" height="5"/>
	<rect x="215" y="30" fill="#33AB66" width="5" height="5"/>
	<polygon fill="#33AB66" points="210,40 205,40 205,45 210,45 215,45 215,40 	"/>
	<rect x="215" y="29.625" fill="#66C08C" width="5" height="5.667"/>
	<polygon fill="#33AB66" points="235,30 235,25 230,25 230,20 225,20 225,25 220,25 215,25 215,30 220,30 225,30 225,35 220,35 
		215,35 215,40 220,40 220,45 225,45 230,45 235,45 235,40 230,40 230,35 235,35 235,40 240,40 240,35 240,30 	"/>
</g>
<g>
	<g>
		<rect x="210" y="135" fill="#66C4D2" width="5" height="5.416"/>
		<rect x="210" y="135" fill="#66C4D2" width="5" height="5.416"/>
		<rect x="210" y="135" fill="#66C4D2" width="5.751" height="5"/>
	</g>
	<rect x="229.584" y="134.584" fill="#F1F1F1" width="5.832" height="5.832"/>
	<rect x="234.042" y="140" fill="#009CB4" width="5.958" height="5"/>
	<rect x="235" y="139.291" fill="#009CB4" width="5" height="5.709"/>
	<rect x="174.708" y="114.708" fill="#EDEDED" width="5.584" height="5.584"/>
	<rect x="78.5" y="114.25" fill="#EDEDED" width="6.5" height="6.5"/>
	<rect x="69.396" y="114.396" fill="#EDEDED" width="6.208" height="6.208"/>
	<g>
		<rect x="65" y="110" fill="#66C4D2" width="6.458" height="5"/>
		<rect x="70" y="105" fill="#66C4D2" width="5.958" height="5"/>
		<rect x="65" y="110" fill="#66C4D2" width="5" height="5.958"/>
		<rect x="70" y="105" fill="#66C4D2" width="5" height="5.833"/>
	</g>
	<rect x="19.583" y="114" fill="#EDEDED" width="6.042" height="6.625"/>
	<g>
		<rect x="15" y="110" fill="#66C4D2" width="6.458" height="5"/>
		<rect x="20" y="105" fill="#66C4D2" width="5.958" height="5"/>
		<rect x="15" y="110" fill="#66C4D2" width="5" height="5.958"/>
		<rect x="20" y="105" fill="#66C4D2" width="5" height="5.833"/>
	</g>
	<rect x="15" y="139.125" fill="#009CB4" width="5" height="5.875"/>
	<rect x="30" y="139.125" fill="#009CB4" width="5" height="5.875"/>
	<rect x="29.167" y="114.583" fill="#EDEDED" width="5.833" height="5.833"/>
	<polygon fill="#33B0C3" points="30,105 25,105 25,110 20,110 20,115 25,115 25,120 20,120 20,115 15,115 15,120 15,125 15,130 
		15,135 15,140 20,140 25,140 30,140 35,140 35,135 35,130 35,125 35,120 30,120 30,115 35,115 35,110 35,105 	"/>
	<rect x="70" y="139.313" fill="#009CB4" width="5" height="5.688"/>
	<rect x="80" y="135" fill="#33B0C3" width="5" height="5"/>
	<rect x="78.875" y="133.875" fill="#009CB4" width="6.125" height="6.125"/>
	<polygon fill="#33B0C3" points="80,105 75,105 75,110 70,110 70,115 75,115 75,120 70,120 70,115 65,115 65,120 65,125 65,130 
		65,135 65,140 70,140 75,140 80,140 80,135 85,135 85,130 85,125 85,120 80,120 80,115 85,115 85,110 85,105 	"/>
	<rect x="130" y="139.5" fill="#009CB4" width="5" height="5.5"/>
	<rect x="115" y="139.5" fill="#009CB4" width="5" height="5.5"/>
	<rect x="124.438" y="114.438" fill="#EDEDED" width="6.125" height="6.125"/>
	<g>
		<rect x="124.75" y="105" fill="#66C4D2" width="5.25" height="5"/>
		<rect x="125" y="105" fill="#66C4D2" width="5" height="5.938"/>
		<rect x="128.938" y="110" fill="#66C4D2" width="6.063" height="5"/>
		<rect x="130" y="110" fill="#66C4D2" width="5" height="5.875"/>
	</g>
	<rect x="174.708" y="105" fill="#66C4D2" width="5.25" height="5"/>
	<rect x="178.896" y="110" fill="#66C4D2" width="6.063" height="5"/>
	<g>
		<rect x="175" y="105" fill="#66C4D2" width="5" height="5.938"/>
		<rect x="180" y="110" fill="#66C4D2" width="5" height="5.875"/>
	</g>
	<rect x="115" y="114.438" fill="#EDEDED" width="6.125" height="6.125"/>
	<polygon fill="#33B0C3" points="130,115 130,120 125,120 125,115 130,115 130,110 125,110 125,105 120,105 115,105 115,110 
		115,115 120,115 120,120 115,120 115,125 115,130 115,135 115,140 120,140 125,140 130,140 135,140 135,135 135,130 135,125 
		135,120 135,115 	"/>
	<rect x="175" y="139.427" fill="#009CB4" width="5" height="5.573"/>
	<rect x="165" y="135" fill="#33B0C3" width="5" height="5"/>
	<rect x="165" y="133.666" fill="#009CB4" width="6.417" height="6.334"/>
	<rect x="165" y="114.583" fill="#EDEDED" width="6.332" height="6.333"/>
	<polygon fill="#33B0C3" points="180,115 180,120 175,120 175,115 180,115 180,110 175,110 175,105 170,105 165,105 165,110 
		165,115 170,115 170,119.917 165,119.917 165,124.917 165,129.917 165,134.917 170,134.917 170,140 175,140 180,140 185,140 
		185,134.917 185,129.917 185,125 185,124.917 185,120 185,115 	"/>
	<rect x="219.625" y="129.625" fill="#F1F1F1" width="5.75" height="5.75"/>
	<rect x="215" y="140" fill="#33B0C3" width="5" height="5"/>
	<rect x="215" y="140" fill="#009CB4" width="5" height="5"/>
	<rect x="215" y="130" fill="#66C4D2" width="5" height="5"/>
	<polygon fill="#33B0C3" points="210,140 205,140 205,145 210,145 215,145 215,140 	"/>
	<rect x="215" y="129.625" fill="#66C4D2" width="5" height="5.666"/>
	<polygon fill="#33B0C3" points="235,130 235,125 230,125 230,120 225,120 225,125 220,125 215,125 215,130 220,130 225,130 
		225,135 220,135 215,135 215,140 220,140 220,145 225,145 230,145 235,145 235,140 230,140 230,135 235,135 235,140 240,140 
		240,135 240,130 	"/>
</g>
<g>
	<rect x="120" y="270" fill="#EE6A71" width="10" height="10"/>
	<polygon fill="#E30613" points="125,285 120,285 120,290 125,290 130,290 130,285 	"/>
	<rect x="115" y="280" fill="#E30613" width="5" height="5"/>
	<polygon fill="#E30613" points="110,270 110,275 110,280 115,280 115,275 115,270 	"/>
	<rect x="130" y="280" fill="#E30613" width="5" height="5"/>
	<polygon fill="#E30613" points="125,260 120,260 120,265 125,265 130,265 130,260 	"/>
	<rect x="105" y="255" fill="#E30613" width="5" height="5"/>
	<rect x="130" y="265" fill="#E30613" width="5" height="5"/>
	<polygon fill="#E30613" points="135,270 135,275 135,280 140,280 140,275 140,270 	"/>
	<rect x="142.5" y="272.5" fill="#E30613" width="5" height="5"/>
	<rect x="102.5" y="272.5" fill="#E30613" width="5" height="5"/>
	<rect x="122.5" y="252.5" fill="#E30613" width="5" height="5"/>
	<rect x="122.5" y="292.5" fill="#E30613" width="5" height="5"/>
	<rect x="140" y="255" fill="#E30613" width="5" height="5"/>
	<rect x="115" y="265" fill="#E30613" width="5" height="5"/>
	<rect x="105" y="290" fill="#E30613" width="5" height="5"/>
	<rect x="140" y="290" fill="#E30613" width="5" height="5"/>
</g>
<g>
	<rect x="22.5" y="272.5" fill="#E30613" width="5" height="5"/>
	<polygon fill="#E30613" points="25,285 20,285 20,290 25,290 30,290 30,285 	"/>
	<polygon fill="#E30613" points="10,270 10,275 10,280 15,280 15,275 15,270 	"/>
	<polygon fill="#E30613" points="25,260 20,260 20,265 25,265 30,265 30,260 	"/>
	<polygon fill="#E30613" points="25,270 20,270 20,275 20,280 25,280 30,280 30,275 30,270 	"/>
	<polygon fill="#E30613" points="35,270 35,275 35,280 40,280 40,275 40,270 	"/>
	<rect x="35" y="260" fill="#E30613" width="5" height="5"/>
	<rect x="10" y="260" fill="#E30613" width="5" height="5"/>
	<rect x="10" y="285" fill="#E30613" width="5" height="5"/>
	<rect x="35" y="285" fill="#E30613" width="5" height="5"/>
</g>
<g>
	<rect x="72.5" y="272.5" fill="#E30613" width="5" height="5"/>
	<polygon fill="#E30613" points="75,285 70,285 70,290 75,290 80,290 80,285 	"/>
	<rect x="65" y="280" fill="#E30613" width="5" height="5"/>
	<polygon fill="#E30613" points="60,270 60,275 60,280 65,280 65,275 65,270 	"/>
	<rect x="80" y="280" fill="#E30613" width="5" height="5"/>
	<polygon fill="#E30613" points="75,260 70,260 70,265 75,265 80,265 80,260 	"/>
	<rect x="65" y="265" fill="#E30613" width="5" height="5"/>
	<rect x="80" y="265" fill="#E30613" width="5" height="5"/>
	<polygon fill="#E30613" points="85,270 85,275 85,280 90,280 90,275 90,270 	"/>
	<rect x="90" y="255" fill="#E30613" width="5" height="5"/>
	<rect x="55" y="255" fill="#E30613" width="5" height="5"/>
	<rect x="55" y="290" fill="#E30613" width="5" height="5"/>
	<rect x="90" y="290" fill="#E30613" width="5" height="5"/>
</g>
<g>
	<rect x="20" y="320" fill="#EDEDED" width="10" height="10"/>
	<rect x="25" y="325" fill="#706F6F" width="5" height="5"/>
</g>
<polygon fill="#EDEDED" points="75,335 75,340 70,340 70,345 75,345 80,345 80,340 80,335 "/>
<polygon fill="#EDEDED" points="85,325 85,320 85,315 80,315 80,310 75,310 70,310 70,315 65,315 65,320 60,320 60,325 60,330 
	60,335 65,335 65,340 70,340 70,335 75,335 75,330 80,330 80,335 85,335 85,330 90,330 90,325 "/>
<g>
	<polygon fill="#706F6F" points="30,385 30,390 25,390 25,385 30,385 30,380 35,380 35,385 40,385 40,376.167 0,376.167 0,395 
		40,395 40,390 35,390 35,385 	"/>
	<polygon fill="#706F6F" points="15,430 10,430 10,425 15,425 15,430 20,430 20,435 15,435 15,440 23.833,440 23.833,400 5,400 
		5,440 10,440 10,435 15,435 	"/>
	<polygon fill="#706F6F" points="15,520 10,520 10,525 15,525 15,520 20,520 20,515 15,515 15,510 23.833,510 23.833,550 5,550 
		5,510 10,510 10,515 15,515 	"/>
	<polygon fill="#706F6F" points="20,485 20,490 25,490 25,485 20,485 20,480 15,480 15,485 10,485 10,476.167 50,476.167 50,495 
		10,495 10,490 15,490 15,485 	"/>
	<g>
		<polygon fill="#706F6F" points="80,385 85,385 90,385 90,376.167 50,376.167 50,395 90,395 90,390 85,390 80,390 75,390 75,385 		
			"/>
		<polygon fill="#33B0C3" points="85,370 90,370 95,370 95,360 50,360 50,385 95,385 95,375 90,375 90,380 85,380 85,375 80,375 
			80,380 75,380 75,375 75,370 80,370 		"/>
		<rect x="65" y="370" fill="#E93842" width="5" height="5"/>
		<rect x="60" y="360" fill="#66C4D2" width="5" height="5"/>
		<rect x="65" y="360" fill="#66C4D2" width="5" height="5"/>
		<rect x="75" y="360" fill="#66C4D2" width="5" height="5"/>
		<rect x="95" y="365" fill="#33B0C3" width="5" height="5"/>
		<rect x="70" y="355" fill="#66C4D2" width="5" height="5"/>
		<rect x="50" y="380" fill="#009CB4" width="5" height="5"/>
		<rect x="60" y="385" fill="#009CB4" width="5" height="5"/>
		<rect x="50" y="375" fill="#009CB4" width="5" height="5"/>
		<rect x="55" y="380" fill="#009CB4" width="5" height="5"/>
		<rect x="65" y="375" fill="#009CB4" width="5" height="5"/>
		<rect x="65" y="365" fill="#009CB4" width="5" height="5"/>
		<rect x="50" y="385" fill="#009CB4" width="5" height="5"/>
	</g>
	<g>
		<polygon fill="#706F6F" points="70,485 65,485 60,485 60,476.167 100,476.167 100,495 60,495 60,490 65,490 70,490 75,490 75,485 
					"/>
		<polygon fill="#33B0C3" points="65,470 60,470 55,470 55,460 100,460 100,485 55,485 55,475 60,475 60,480 65,480 65,475 70,475 
			70,480 75,480 75,475 75,470 70,470 		"/>
		<rect x="80" y="470" fill="#E93842" width="5" height="5"/>
		<rect x="85" y="460" fill="#66C4D2" width="5" height="5"/>
		<rect x="80" y="460" fill="#66C4D2" width="5" height="5"/>
		<rect x="70" y="460" fill="#66C4D2" width="5" height="5"/>
		<rect x="50" y="465" fill="#33B0C3" width="5" height="5"/>
		<rect x="75" y="455" fill="#66C4D2" width="5" height="5"/>
		<rect x="95" y="480" fill="#009CB4" width="5" height="5"/>
		<rect x="85" y="485" fill="#009CB4" width="5" height="5"/>
		<rect x="95" y="475" fill="#009CB4" width="5" height="5"/>
		<rect x="90" y="480" fill="#009CB4" width="5" height="5"/>
		<rect x="80" y="475" fill="#009CB4" width="5" height="5"/>
		<rect x="80" y="465" fill="#009CB4" width="5" height="5"/>
		<rect x="95" y="485" fill="#009CB4" width="5" height="5"/>
	</g>
	<g>
		<polygon fill="#706F6F" points="65,430 65,435 65,440 73.833,440 73.833,400 55,400 55,440 60,440 60,435 60,430 60,425 65,425 		
			"/>
		<polygon fill="#33B0C3" points="80,435 80,440 80,445 90,445 90,400 65,400 65,445 75,445 75,440 70,440 70,435 75,435 75,430 
			70,430 70,425 75,425 80,425 80,430 		"/>
		<rect x="75" y="415" fill="#E93842" width="5" height="5"/>
		<rect x="85" y="410" fill="#66C4D2" width="5" height="5"/>
		<rect x="85" y="415" fill="#66C4D2" width="5" height="5"/>
		<rect x="85" y="425" fill="#66C4D2" width="5" height="5"/>
		<rect x="80" y="445" fill="#33B0C3" width="5" height="5"/>
		<rect x="90" y="420" fill="#66C4D2" width="5" height="5"/>
		<rect x="65" y="400" fill="#009CB4" width="5" height="5"/>
		<rect x="60" y="410" fill="#009CB4" width="5" height="5"/>
		<rect x="70" y="400" fill="#009CB4" width="5" height="5"/>
		<rect x="65" y="405" fill="#009CB4" width="5" height="5"/>
		<rect x="70" y="415" fill="#009CB4" width="5" height="5"/>
		<rect x="80" y="415" fill="#009CB4" width="5" height="5"/>
		<rect x="60" y="400" fill="#009CB4" width="5" height="5"/>
	</g>
	<g>
		<rect x="110" y="476.167" fill="#706F6F" width="40" height="18.833"/>
		<polygon fill="#33B0C3" points="115,465 120,465 120,460 150,460 150,485 125,485 125,480 120,480 115,480 110,480 105,480 
			105,465 110,465 		"/>
		<rect x="130" y="470" fill="#E93842" width="5" height="5"/>
		<rect x="135" y="460" fill="#66C4D2" width="5" height="5"/>
		<rect x="130" y="460" fill="#66C4D2" width="5" height="5"/>
		<rect x="120" y="460" fill="#66C4D2" width="5" height="5"/>
		<rect x="100" y="470" fill="#33B0C3" width="5" height="5"/>
		<rect x="125" y="455" fill="#66C4D2" width="5" height="5"/>
		<rect x="145" y="480" fill="#009CB4" width="5" height="5"/>
		<rect x="135" y="485" fill="#009CB4" width="5" height="5"/>
		<rect x="145" y="475" fill="#009CB4" width="5" height="5"/>
		<rect x="140" y="480" fill="#009CB4" width="5" height="5"/>
		<rect x="130" y="475" fill="#009CB4" width="5" height="5"/>
		<rect x="130" y="465" fill="#009CB4" width="5" height="5"/>
		<rect x="145" y="485" fill="#009CB4" width="5" height="5"/>
	</g>
	<g>
		<rect x="100" y="376.167" fill="#706F6F" width="40" height="18.833"/>
		<polygon fill="#33B0C3" points="135,365 130,365 130,360 100,360 100,385 125,385 125,380 130,380 135,380 140,380 145,380 
			145,365 140,365 		"/>
		<rect x="115" y="370" fill="#E93842" width="5" height="5"/>
		<rect x="110" y="360" fill="#66C4D2" width="5" height="5"/>
		<rect x="115" y="360" fill="#66C4D2" width="5" height="5"/>
		<rect x="125" y="360" fill="#66C4D2" width="5" height="5"/>
		<rect x="145" y="370" fill="#33B0C3" width="5" height="5"/>
		<rect x="120" y="355" fill="#66C4D2" width="5" height="5"/>
		<rect x="100" y="380" fill="#009CB4" width="5" height="5"/>
		<rect x="110" y="385" fill="#009CB4" width="5" height="5"/>
		<rect x="100" y="375" fill="#009CB4" width="5" height="5"/>
		<rect x="105" y="380" fill="#009CB4" width="5" height="5"/>
		<rect x="115" y="375" fill="#009CB4" width="5" height="5"/>
		<rect x="115" y="365" fill="#009CB4" width="5" height="5"/>
		<rect x="100" y="385" fill="#009CB4" width="5" height="5"/>
	</g>
	<g>
		<rect x="105" y="400" fill="#706F6F" width="18.833" height="40"/>
		<polygon fill="#33B0C3" points="135,435 135,430 140,430 140,400 115,400 115,425 120,425 120,430 120,435 120,440 120,445 
			135,445 135,440 		"/>
		<rect x="125" y="415" fill="#E93842" width="5" height="5"/>
		<rect x="135" y="410" fill="#66C4D2" width="5" height="5"/>
		<rect x="135" y="415" fill="#66C4D2" width="5" height="5"/>
		<rect x="135" y="425" fill="#66C4D2" width="5" height="5"/>
		<rect x="125" y="445" fill="#33B0C3" width="5" height="5"/>
		<rect x="140" y="420" fill="#66C4D2" width="5" height="5"/>
		<rect x="115" y="400" fill="#009CB4" width="5" height="5"/>
		<rect x="110" y="410" fill="#009CB4" width="5" height="5"/>
		<rect x="120" y="400" fill="#009CB4" width="5" height="5"/>
		<rect x="115" y="405" fill="#009CB4" width="5" height="5"/>
		<rect x="120" y="415" fill="#009CB4" width="5" height="5"/>
		<rect x="130" y="415" fill="#009CB4" width="5" height="5"/>
		<rect x="110" y="400" fill="#009CB4" width="5" height="5"/>
	</g>
	<g>
		<polygon fill="#706F6F" points="65,520 65,515 65,510 73.833,510 73.833,550 55,550 55,510 60,510 60,515 60,520 60,525 65,525 		
			"/>
		<polygon fill="#33B0C3" points="80,515 80,510 80,505 90,505 90,550 65,550 65,505 75,505 75,510 70,510 70,515 75,515 75,520 
			70,520 70,525 75,525 80,525 80,520 		"/>
		<rect x="75" y="530" fill="#E93842" width="5" height="5"/>
		<rect x="85" y="535" fill="#66C4D2" width="5" height="5"/>
		<rect x="85" y="530" fill="#66C4D2" width="5" height="5"/>
		<rect x="85" y="520" fill="#66C4D2" width="5" height="5"/>
		<rect x="80" y="500" fill="#33B0C3" width="5" height="5"/>
		<rect x="90" y="525" fill="#66C4D2" width="5" height="5"/>
		<rect x="65" y="545" fill="#009CB4" width="5" height="5"/>
		<rect x="60" y="535" fill="#009CB4" width="5" height="5"/>
		<rect x="70" y="545" fill="#009CB4" width="5" height="5"/>
		<rect x="65" y="540" fill="#009CB4" width="5" height="5"/>
		<rect x="70" y="530" fill="#009CB4" width="5" height="5"/>
		<rect x="80" y="530" fill="#009CB4" width="5" height="5"/>
		<rect x="60" y="545" fill="#009CB4" width="5" height="5"/>
	</g>
	<g>
		<rect x="105" y="510" fill="#706F6F" width="18.833" height="40"/>
		<polygon fill="#33B0C3" points="135,515 135,520 140,520 140,550 115,550 115,525 120,525 120,520 120,515 120,510 120,505 
			135,505 135,510 		"/>
		<rect x="125" y="530" fill="#E93842" width="5" height="5"/>
		<rect x="135" y="535" fill="#66C4D2" width="5" height="5"/>
		<rect x="135" y="530" fill="#66C4D2" width="5" height="5"/>
		<rect x="135" y="520" fill="#66C4D2" width="5" height="5"/>
		<rect x="125" y="500" fill="#33B0C3" width="5" height="5"/>
		<rect x="140" y="525" fill="#66C4D2" width="5" height="5"/>
		<rect x="115" y="545" fill="#009CB4" width="5" height="5"/>
		<rect x="110" y="535" fill="#009CB4" width="5" height="5"/>
		<rect x="120" y="545" fill="#009CB4" width="5" height="5"/>
		<rect x="115" y="540" fill="#009CB4" width="5" height="5"/>
		<rect x="120" y="530" fill="#009CB4" width="5" height="5"/>
		<rect x="130" y="530" fill="#009CB4" width="5" height="5"/>
		<rect x="110" y="545" fill="#009CB4" width="5" height="5"/>
	</g>
</g>
<g>
	<g>
		<rect x="210" y="85" fill="#F7B766" width="5" height="5.417"/>
		<rect x="210" y="85" fill="#F7B766" width="5" height="5.417"/>
		<rect x="210" y="85" fill="#F7B766" width="5.751" height="5"/>
	</g>
	<rect x="229.584" y="84.583" fill="#F1F1F1" width="5.832" height="5.833"/>
	<rect x="234.042" y="90" fill="#F18700" width="5.958" height="5"/>
	<rect x="235" y="89.292" fill="#F18700" width="5" height="5.708"/>
	<rect x="174.708" y="64.708" fill="#EDEDED" width="5.584" height="5.584"/>
	<rect x="78.5" y="64.25" fill="#EDEDED" width="6.5" height="6.5"/>
	<rect x="69.396" y="64.396" fill="#EDEDED" width="6.208" height="6.208"/>
	<g>
		<rect x="65" y="60" fill="#F7B766" width="6.458" height="5"/>
		<rect x="70" y="55" fill="#F7B766" width="5.958" height="5"/>
		<rect x="65" y="60" fill="#F7B766" width="5" height="5.958"/>
		<rect x="70" y="55" fill="#F7B766" width="5" height="5.833"/>
	</g>
	<rect x="19.583" y="64" fill="#EDEDED" width="6.042" height="6.625"/>
	<g>
		<rect x="15" y="60" fill="#F7B766" width="6.458" height="5"/>
		<rect x="20" y="55" fill="#F7B766" width="5.958" height="5"/>
		<rect x="15" y="60" fill="#F7B766" width="5" height="5.958"/>
		<rect x="20" y="55" fill="#F7B766" width="5" height="5.833"/>
	</g>
	<rect x="15" y="89.125" fill="#F18700" width="5" height="5.875"/>
	<rect x="30" y="89.125" fill="#F18700" width="5" height="5.875"/>
	<rect x="29.167" y="64.583" fill="#EDEDED" width="5.833" height="5.833"/>
	<polygon fill="#F49F33" points="30,55 25,55 25,60 20,60 20,65 25,65 25,70 20,70 20,65 15,65 15,70 15,75 15,80 15,85 15,90 
		20,90 25,90 30,90 35,90 35,85 35,80 35,75 35,70 30,70 30,65 35,65 35,60 35,55 	"/>
	<rect x="70" y="89.313" fill="#F18700" width="5" height="5.688"/>
	<rect x="80" y="85" fill="#33AB66" width="5" height="5"/>
	<rect x="78.875" y="83.875" fill="#F18700" width="6.125" height="6.125"/>
	<polygon fill="#F49F33" points="80,55 75,55 75,60 70,60 70,65 75,65 75,70 70,70 70,65 65,65 65,70 65,75 65,80 65,85 65,90 
		70,90 75,90 80,90 80,85 85,85 85,80 85,75 85,70 80,70 80,65 85,65 85,60 85,55 	"/>
	<rect x="130" y="89.5" fill="#F18700" width="5" height="5.5"/>
	<rect x="115" y="89.5" fill="#F18700" width="5" height="5.5"/>
	<rect x="124.438" y="64.438" fill="#EDEDED" width="6.125" height="6.125"/>
	<g>
		<rect x="124.75" y="55" fill="#F7B766" width="5.25" height="5"/>
		<rect x="125" y="55" fill="#F7B766" width="5" height="5.938"/>
		<rect x="128.938" y="60" fill="#F7B766" width="6.063" height="5"/>
		<rect x="130" y="60" fill="#F7B766" width="5" height="5.875"/>
	</g>
	<rect x="174.708" y="55" fill="#F7B766" width="5.25" height="5"/>
	<rect x="178.896" y="60" fill="#F7B766" width="6.063" height="5"/>
	<g>
		<rect x="175" y="55" fill="#F7B766" width="5" height="5.938"/>
		<rect x="180" y="60" fill="#F7B766" width="5" height="5.875"/>
	</g>
	<rect x="115" y="64.438" fill="#EDEDED" width="6.125" height="6.125"/>
	<polygon fill="#F49F33" points="130,65 130,70 125,70 125,65 130,65 130,60 125,60 125,55 120,55 115,55 115,60 115,65 120,65 
		120,70 115,70 115,75 115,80 115,85 115,90 120,90 125,90 130,90 135,90 135,85 135,80 135,75 135,70 135,65 	"/>
	<rect x="175" y="89.427" fill="#F18700" width="5" height="5.573"/>
	<rect x="165" y="85" fill="#33AB66" width="5" height="5"/>
	<rect x="165" y="83.667" fill="#F18700" width="6.417" height="6.333"/>
	<rect x="165" y="64.583" fill="#EDEDED" width="6.332" height="6.333"/>
	<polygon fill="#F49F33" points="180,65 180,70 175,70 175,65 180,65 180,60 175,60 175,55 170,55 165,55 165,60 165,65 170,65 
		170,69.917 165,69.917 165,74.917 165,79.917 165,84.917 170,84.917 170,90 175,90 180,90 185,90 185,84.917 185,79.917 185,75 
		185,74.917 185,70 185,65 	"/>
	<rect x="219.625" y="79.625" fill="#F1F1F1" width="5.75" height="5.75"/>
	<rect x="215" y="90" fill="#F49F33" width="5" height="5"/>
	<rect x="215" y="90" fill="#F18700" width="5" height="5"/>
	<rect x="215" y="80" fill="#F7B766" width="5" height="5"/>
	<polygon fill="#F49F33" points="210,90 205,90 205,95 210,95 215,95 215,90 	"/>
	<rect x="215" y="79.625" fill="#F7B766" width="5" height="5.667"/>
	<polygon fill="#F49F33" points="235,80 235,75 230,75 230,70 225,70 225,75 220,75 215,75 215,80 220,80 225,80 225,85 220,85 
		215,85 215,90 220,90 220,95 225,95 230,95 235,95 235,90 230,90 230,85 235,85 235,90 240,90 240,85 240,80 	"/>
</g>
<g>
	<g>
		<rect x="210" y="185" fill="#EE6A71" width="5" height="5.416"/>
		<rect x="210" y="185" fill="#EE6A71" width="5" height="5.416"/>
		<rect x="210" y="185" fill="#EE6A71" width="5.751" height="5"/>
	</g>
	<rect x="229.584" y="184.584" fill="#F1F1F1" width="5.832" height="5.832"/>
	<rect x="234.042" y="190" fill="#E30613" width="5.958" height="5"/>
	<rect x="235" y="189.291" fill="#E30613" width="5" height="5.709"/>
	<rect x="174.708" y="164.708" fill="#EDEDED" width="5.584" height="5.584"/>
	<rect x="78.5" y="164.25" fill="#EDEDED" width="6.5" height="6.5"/>
	<rect x="69.396" y="164.396" fill="#EDEDED" width="6.208" height="6.207"/>
	<g>
		<rect x="65" y="160" fill="#EE6A71" width="6.458" height="5"/>
		<rect x="70" y="155" fill="#EE6A71" width="5.958" height="5"/>
		<rect x="65" y="160" fill="#EE6A71" width="5" height="5.959"/>
		<rect x="70" y="155" fill="#EE6A71" width="5" height="5.834"/>
	</g>
	<rect x="19.583" y="164" fill="#EDEDED" width="6.042" height="6.625"/>
	<g>
		<rect x="15" y="160" fill="#EE6A71" width="6.458" height="5"/>
		<rect x="20" y="155" fill="#EE6A71" width="5.958" height="5"/>
		<rect x="15" y="160" fill="#EE6A71" width="5" height="5.959"/>
		<rect x="20" y="155" fill="#EE6A71" width="5" height="5.834"/>
	</g>
	<rect x="15" y="189.125" fill="#E30613" width="5" height="5.875"/>
	<rect x="30" y="189.125" fill="#E30613" width="5" height="5.875"/>
	<rect x="29.167" y="164.584" fill="#EDEDED" width="5.833" height="5.832"/>
	<polygon fill="#E93842" points="30,155 25,155 25,160 20,160 20,165 25,165 25,170 20,170 20,165 15,165 15,170 15,175 15,180 
		15,185 15,190 20,190 25,190 30,190 35,190 35,185 35,180 35,175 35,170 30,170 30,165 35,165 35,160 35,155 	"/>
	<rect x="70" y="189.313" fill="#E30613" width="5" height="5.688"/>
	<rect x="80" y="185" fill="#E30613" width="5" height="5"/>
	<rect x="78.875" y="183.875" fill="#E30613" width="6.125" height="6.125"/>
	<polygon fill="#E93842" points="80,155 75,155 75,160 70,160 70,165 75,165 75,170 70,170 70,165 65,165 65,170 65,175 65,180 
		65,185 65,190 70,190 75,190 80,190 80,185 85,185 85,180 85,175 85,170 80,170 80,165 85,165 85,160 85,155 	"/>
	<rect x="130" y="189.5" fill="#E30613" width="5" height="5.5"/>
	<rect x="115" y="189.5" fill="#E30613" width="5" height="5.5"/>
	<rect x="124.438" y="164.438" fill="#EDEDED" width="6.125" height="6.125"/>
	<g>
		<rect x="124.75" y="155" fill="#EE6A71" width="5.25" height="5"/>
		<rect x="125" y="155" fill="#EE6A71" width="5" height="5.938"/>
		<rect x="128.938" y="160" fill="#EE6A71" width="6.063" height="5"/>
		<rect x="130" y="160" fill="#EE6A71" width="5" height="5.875"/>
	</g>
	<rect x="174.708" y="155" fill="#EE6A71" width="5.25" height="5"/>
	<rect x="178.896" y="160" fill="#EE6A71" width="6.063" height="5"/>
	<g>
		<rect x="175" y="155" fill="#EE6A71" width="5" height="5.938"/>
		<rect x="180" y="160" fill="#EE6A71" width="5" height="5.875"/>
	</g>
	<rect x="115" y="164.438" fill="#EDEDED" width="6.125" height="6.125"/>
	<polygon fill="#E93842" points="130,165 130,170 125,170 125,165 130,165 130,160 125,160 125,155 120,155 115,155 115,160 
		115,165 120,165 120,170 115,170 115,175 115,180 115,185 115,190 120,190 125,190 130,190 135,190 135,185 135,180 135,175 
		135,170 135,165 	"/>
	<rect x="175" y="189.427" fill="#E30613" width="5" height="5.573"/>
	<rect x="165" y="185" fill="#E30613" width="5" height="5"/>
	<rect x="165" y="183.666" fill="#E30613" width="6.417" height="6.334"/>
	<rect x="165" y="164.584" fill="#EDEDED" width="6.332" height="6.332"/>
	<polygon fill="#E93842" points="180,165 180,170 175,170 175,165 180,165 180,160 175,160 175,155 170,155 165,155 165,160 
		165,165 170,165 170,169.917 165,169.917 165,174.917 165,179.917 165,184.917 170,184.917 170,190 175,190 180,190 185,190 
		185,184.917 185,179.917 185,175 185,174.917 185,170 185,165 	"/>
	<rect x="219.625" y="179.625" fill="#F1F1F1" width="5.75" height="5.75"/>
	<rect x="215" y="190" fill="#E30613" width="5" height="5"/>
	<rect x="215" y="190" fill="#E30613" width="5" height="5"/>
	<rect x="215" y="180" fill="#EE6A71" width="5" height="5"/>
	<polygon fill="#E93842" points="210,190 205,190 205,195 210,195 215,195 215,190 	"/>
	<rect x="215" y="179.625" fill="#EE6A71" width="5" height="5.666"/>
	<polygon fill="#E93842" points="235,180 235,175 230,175 230,170 225,170 225,175 220,175 215,175 215,180 220,180 225,180 
		225,185 220,185 215,185 215,190 220,190 220,195 225,195 230,195 235,195 235,190 230,190 230,185 235,185 235,190 240,190 
		240,185 240,180 	"/>
</g>
<g>
	<g>
		<rect x="210" y="235" fill="#B2B2B2" width="5" height="5.416"/>
		<rect x="210" y="235" fill="#B2B2B2" width="5" height="5.416"/>
		<rect x="210" y="235" fill="#B2B2B2" width="5.751" height="5"/>
	</g>
	<rect x="229.584" y="234.584" fill="#F1F1F1" width="5.832" height="5.832"/>
	<rect x="234.042" y="240" fill="#3C3C3B" width="5.958" height="5"/>
	<rect x="235" y="239.291" fill="#3C3C3B" width="5" height="5.709"/>
	<rect x="174.708" y="214.708" fill="#EDEDED" width="5.584" height="5.584"/>
	<rect x="78.5" y="214.25" fill="#EDEDED" width="6.5" height="6.5"/>
	<rect x="69.396" y="214.396" fill="#EDEDED" width="6.208" height="6.207"/>
	<g>
		<rect x="65" y="210" fill="#B2B2B2" width="6.458" height="5"/>
		<rect x="70" y="205" fill="#B2B2B2" width="5.958" height="5"/>
		<rect x="65" y="210" fill="#B2B2B2" width="5" height="5.959"/>
		<rect x="70" y="205" fill="#B2B2B2" width="5" height="5.834"/>
	</g>
	<rect x="19.583" y="214" fill="#EDEDED" width="6.042" height="6.625"/>
	<g>
		<rect x="15" y="210" fill="#B2B2B2" width="6.458" height="5"/>
		<rect x="20" y="205" fill="#B2B2B2" width="5.958" height="5"/>
		<rect x="15" y="210" fill="#B2B2B2" width="5" height="5.959"/>
		<rect x="20" y="205" fill="#B2B2B2" width="5" height="5.834"/>
	</g>
	<rect x="15" y="239.125" fill="#3C3C3B" width="5" height="5.875"/>
	<rect x="30" y="239.125" fill="#3C3C3B" width="5" height="5.875"/>
	<rect x="29.167" y="214.584" fill="#EDEDED" width="5.833" height="5.832"/>
	<polygon fill="#8D8C8C" points="30,205 25,205 25,210 20,210 20,215 25,215 25,220 20,220 20,215 15,215 15,220 15,225 15,230 
		15,235 15,240 20,240 25,240 30,240 35,240 35,235 35,230 35,225 35,220 30,220 30,215 35,215 35,210 35,205 	"/>
	<rect x="70" y="239.313" fill="#3C3C3B" width="5" height="5.688"/>
	<rect x="80" y="235" fill="#636362" width="5" height="5"/>
	<rect x="78.875" y="233.875" fill="#3C3C3B" width="6.125" height="6.125"/>
	<polygon fill="#8D8C8C" points="80,205 75,205 75,210 70,210 70,215 75,215 75,220 70,220 70,215 65,215 65,220 65,225 65,230 
		65,235 65,240 70,240 75,240 80,240 80,235 85,235 85,230 85,225 85,220 80,220 80,215 85,215 85,210 85,205 	"/>
	<rect x="130" y="239.5" fill="#3C3C3B" width="5" height="5.5"/>
	<rect x="115" y="239.5" fill="#3C3C3B" width="5" height="5.5"/>
	<rect x="124.438" y="214.438" fill="#EDEDED" width="6.125" height="6.125"/>
	<g>
		<rect x="124.75" y="205" fill="#B2B2B2" width="5.25" height="5"/>
		<rect x="125" y="205" fill="#B2B2B2" width="5" height="5.938"/>
		<rect x="128.938" y="210" fill="#B2B2B2" width="6.063" height="5"/>
		<rect x="130" y="210" fill="#B2B2B2" width="5" height="5.875"/>
	</g>
	<rect x="174.708" y="205" fill="#B2B2B2" width="5.25" height="5"/>
	<rect x="178.896" y="210" fill="#B2B2B2" width="6.063" height="5"/>
	<g>
		<rect x="175" y="205" fill="#B2B2B2" width="5" height="5.938"/>
		<rect x="180" y="210" fill="#B2B2B2" width="5" height="5.875"/>
	</g>
	<rect x="115" y="214.438" fill="#EDEDED" width="6.125" height="6.125"/>
	<polygon fill="#8D8C8C" points="130,215 130,220 125,220 125,215 130,215 130,210 125,210 125,205 120,205 115,205 115,210 
		115,215 120,215 120,220 115,220 115,225 115,230 115,235 115,240 120,240 125,240 130,240 135,240 135,235 135,230 135,225 
		135,220 135,215 	"/>
	<rect x="175" y="239.427" fill="#3C3C3B" width="5" height="5.573"/>
	<rect x="165" y="235" fill="#636362" width="5" height="5"/>
	<rect x="165" y="233.666" fill="#3C3C3B" width="6.417" height="6.334"/>
	<rect x="165" y="214.584" fill="#EDEDED" width="6.332" height="6.332"/>
	<polygon fill="#8D8C8C" points="180,215 180,220 175,220 175,215 180,215 180,210 175,210 175,205 170,205 165,205 165,210 
		165,215 170,215 170,219.917 165,219.917 165,224.917 165,229.917 165,234.917 170,234.917 170,240 175,240 180,240 185,240 
		185,234.917 185,229.917 185,225 185,224.917 185,220 185,215 	"/>
	<rect x="219.625" y="229.625" fill="#F1F1F1" width="5.75" height="5.75"/>
	<rect x="215" y="240" fill="#636362" width="5" height="5"/>
	<rect x="215" y="240" fill="#3C3C3B" width="5" height="5"/>
	<rect x="215" y="230" fill="#B2B2B2" width="5" height="5"/>
	<polygon fill="#8D8C8C" points="210,240 205,240 205,245 210,245 215,245 215,240 	"/>
	<rect x="215" y="229.625" fill="#B2B2B2" width="5" height="5.666"/>
	<polygon fill="#8D8C8C" points="235,230 235,225 230,225 230,220 225,220 225,225 220,225 215,225 215,230 220,230 225,230 
		225,235 220,235 215,235 215,240 220,240 220,245 225,245 230,245 235,245 235,240 230,240 230,235 235,235 235,240 240,240 
		240,235 240,230 	"/>
</g>
</svg>
